<?xml version="1.0" encoding="UTF-8" standalone="no"?>
<!-- Created with Inkscape (http://www.inkscape.org/) -->

<svg
   xmlns:dc="http://purl.org/dc/elements/1.1/"
   xmlns:cc="http://creativecommons.org/ns#"
   xmlns:rdf="http://www.w3.org/1999/02/22-rdf-syntax-ns#"
   xmlns:svg="http://www.w3.org/2000/svg"
   xmlns="http://www.w3.org/2000/svg"
   xmlns:sodipodi="http://sodipodi.sourceforge.net/DTD/sodipodi-0.dtd"
   xmlns:inkscape="http://www.inkscape.org/namespaces/inkscape"
   width="3000"
   height="3000"
   viewBox="0 0 793.74998 793.75002"
   version="1.1"
   id="svg8"
   inkscape:version="0.92.4 (5da689c313, 2019-01-14)"
   sodipodi:docname="Virus Set.svg"
   inkscape:export-filename="./muhnaufals - Covid-19 Heal the World.png"
   inkscape:export-xdpi="25.400002"
   inkscape:export-ydpi="25.400002">
  <defs
     id="defs2">
    <inkscape:path-effect
       fuse_tolerance="10"
       vertical_pattern="false"
       prop_units="false"
       tang_offset="0"
       normal_offset="0"
       spacing="15"
       scale_y_rel="true"
       prop_scale="1"
       copytype="repeated_stretched"
       pattern="m -1307.4449,206.29394 c -2.1556,0 -3.8908,1.73526 -3.8908,3.89086 0,2.09099 1.6341,3.78145 3.6995,3.88122 v 6.66845 c 0,2.1556 1.7352,3.89086 3.8908,3.89086 2.1556,0 3.8916,-1.73526 3.8916,-3.89086 v -6.66845 c 2.0654,-0.0998 3.6995,-1.79023 3.6995,-3.88122 0,-2.1556 -1.7352,-3.89086 -3.8908,-3.89086 z"
       is_visible="true"
       id="path-effect1524"
       effect="skeletal" />
    <inkscape:path-effect
       fuse_tolerance="10"
       vertical_pattern="false"
       prop_units="false"
       tang_offset="0"
       normal_offset="0"
       spacing="15"
       scale_y_rel="true"
       prop_scale="1"
       copytype="repeated_stretched"
       pattern="m -1307.4449,206.29394 c -2.1556,0 -3.8908,1.73526 -3.8908,3.89086 0,2.09099 1.6341,3.78145 3.6995,3.88122 v 6.66845 c 0,2.1556 1.7352,3.89086 3.8908,3.89086 2.1556,0 3.8916,-1.73526 3.8916,-3.89086 v -6.66845 c 2.0654,-0.0998 3.6995,-1.79023 3.6995,-3.88122 0,-2.1556 -1.7352,-3.89086 -3.8908,-3.89086 z"
       is_visible="true"
       id="path-effect921"
       effect="skeletal" />
    <inkscape:path-effect
       fuse_tolerance="10"
       vertical_pattern="false"
       prop_units="false"
       tang_offset="0"
       normal_offset="0"
       spacing="15"
       scale_y_rel="true"
       prop_scale="1"
       copytype="repeated_stretched"
       pattern="m -1307.4449,206.29394 c -2.1556,0 -3.8908,1.73526 -3.8908,3.89086 0,2.09099 1.6341,3.78145 3.6995,3.88122 v 6.66845 c 0,2.1556 1.7352,3.89086 3.8908,3.89086 2.1556,0 3.8916,-1.73526 3.8916,-3.89086 v -6.66845 c 2.0654,-0.0998 3.6995,-1.79023 3.6995,-3.88122 0,-2.1556 -1.7352,-3.89086 -3.8908,-3.89086 z"
       is_visible="true"
       id="path-effect864"
       effect="skeletal" />
    <inkscape:path-effect
       effect="skeletal"
       id="path-effect836"
       is_visible="true"
       pattern="m -1307.4449,206.29394 c -2.1556,0 -3.8908,1.73526 -3.8908,3.89086 0,2.09099 1.6341,3.78145 3.6995,3.88122 v 6.66845 c 0,2.1556 1.7352,3.89086 3.8908,3.89086 2.1556,0 3.8916,-1.73526 3.8916,-3.89086 v -6.66845 c 2.0654,-0.0998 3.6995,-1.79023 3.6995,-3.88122 0,-2.1556 -1.7352,-3.89086 -3.8908,-3.89086 z"
       copytype="repeated_stretched"
       prop_scale="1"
       scale_y_rel="true"
       spacing="15"
       normal_offset="0"
       tang_offset="0"
       prop_units="false"
       vertical_pattern="false"
       fuse_tolerance="10" />
  </defs>
  <sodipodi:namedview
     id="base"
     pagecolor="#ffffff"
     bordercolor="#666666"
     borderopacity="1.0"
     inkscape:pageopacity="0.0"
     inkscape:pageshadow="2"
     inkscape:zoom="0.16375479"
     inkscape:cx="1410.2862"
     inkscape:cy="1412.4731"
     inkscape:document-units="mm"
     inkscape:current-layer="layer2"
     showgrid="false"
     inkscape:window-width="1366"
     inkscape:window-height="706"
     inkscape:window-x="-8"
     inkscape:window-y="-8"
     inkscape:window-maximized="1"
     showguides="true"
     inkscape:guide-bbox="true"
     inkscape:snap-global="true"
     inkscape:snap-bbox="true"
     inkscape:bbox-paths="true"
     inkscape:object-nodes="false"
     inkscape:snap-page="true"
     inkscape:snap-others="false"
     inkscape:snap-midpoints="false"
     inkscape:snap-nodes="true"
     inkscape:bbox-nodes="true"
     units="px">
    <inkscape:grid
       type="xygrid"
       id="grid911" />
  </sodipodi:namedview>
  <metadata
     id="metadata5">
    <rdf:RDF>
      <cc:Work
         rdf:about="">
        <dc:format>image/svg+xml</dc:format>
        <dc:type
           rdf:resource="http://purl.org/dc/dcmitype/StillImage" />
        <dc:title></dc:title>
      </cc:Work>
    </rdf:RDF>
  </metadata>
  <g
     inkscape:groupmode="layer"
     id="layer2"
     inkscape:label="Layer 1"
     transform="translate(0,-286.24994)">
    <g
       id="g877"
       transform="translate(-60.313363,18.222463)">
      <g
         transform="matrix(0.4317459,0,0,0.4317459,-56.258029,431.75969)"
         inkscape:export-ydpi="25.400002"
         inkscape:export-xdpi="25.400002"
         inkscape:export-filename="./Covid-19.png"
         id="g846">
        <g
           id="g834">
          <path
             inkscape:connector-curvature="0"
             style="opacity:1;vector-effect:none;fill:#ed3c43;fill-opacity:1;fill-rule:evenodd;stroke:none;stroke-width:53.33839035;stroke-linecap:round;stroke-linejoin:miter;stroke-miterlimit:4;stroke-dasharray:none;stroke-dashoffset:0;stroke-opacity:0;paint-order:normal"
             d="m 538.40413,270.00166 c -8.65426,0.0301 -17.32152,0.4721 -25.97034,1.33225 -15.66166,1.5576 -25.18378,13.79296 -22.71172,25.73743 2.3955,11.57385 14.29946,18.91927 25.9769,18.24084 l 2.54473,24.21899 a 201.88171,201.88171 0 0 0 -106.79132,45.01339 l -15.33253,-18.63315 c 8.6911,-7.85943 11.6933,-21.45923 5.07387,-31.25021 -6.82497,-10.0951 -22.13018,-11.92905 -34.12517,-1.95068 -13.27385,11.04222 -25.52227,23.35758 -36.53702,36.8052 -9.9731,12.17588 -8.05283,27.56246 2.14126,34.26046 9.8778,6.49014 23.48836,3.26631 31.26586,-5.47069 l 18.87907,15.28822 A 201.88171,201.88171 0 0 0 339.0723,520.9636 l -23.91101,-2.32524 c 0.588,-11.70308 -6.9051,-23.43946 -18.50898,-25.68205 -11.96436,-2.3124 -24.08318,7.20957 -25.50909,22.7471 -1.578,17.1941 -1.52974,34.56546 0.19045,51.86292 1.55768,15.6617 13.79305,25.18391 25.73756,22.71171 11.57381,-2.39536 18.9214,-14.29946 18.24293,-25.9769 l 24.21689,-2.54461 a 201.88171,201.88171 0 0 0 45.0134,106.7913 l -18.63316,15.33245 c -7.85946,-8.69099 -21.45707,-11.69319 -31.24805,-5.07389 -10.09514,6.82511 -11.93121,22.12805 -1.95287,34.12302 11.04225,13.27382 23.35977,25.52454 36.80747,36.53917 12.17592,9.97315 27.56023,8.05283 34.25819,-2.14126 6.49018,-9.87778 3.2685,-23.48836 -5.4684,-31.26574 l 15.28819,-18.87919 a 201.88171,201.88171 0 0 0 107.36761,43.74542 l -2.32531,23.91101 c -11.70301,-0.588 -23.43934,6.90524 -25.68204,18.50902 -2.31229,11.96432 7.21184,24.08314 22.7495,25.50917 17.19395,1.57802 34.56532,1.52964 51.86278,-0.19088 15.66166,-1.55767 25.18163,-13.79518 22.70956,-25.73969 -2.39549,-11.57385 -14.29946,-18.91925 -25.97689,-18.2408 l -2.54473,-24.21689 a 201.88171,201.88171 0 0 0 106.79128,-45.01338 l 15.33258,18.63315 c -8.69098,7.85956 -11.69322,21.45708 -5.07389,31.24806 6.82506,10.09514 22.13019,11.93133 34.12531,1.95287 13.27368,-11.04212 25.52222,-23.35977 36.53689,-36.80735 9.9731,-12.1759 8.05511,-27.56035 -2.13912,-34.25831 -9.87767,-6.49006 -23.49051,-3.26845 -31.26792,5.46852 l -18.8792,-15.28824 a 201.88171,201.88171 0 0 0 43.74548,-107.36756 l 23.911,2.32519 c -0.588,11.70299 6.90511,23.43946 18.50898,25.68203 11.96435,2.31233 24.08319,-7.21184 25.50908,-22.74937 1.57802,-17.19408 1.52976,-34.56545 -0.19045,-51.8629 -1.55767,-15.66167 -13.79305,-25.1839 -25.73754,-22.71172 -11.57386,2.3955 -18.92145,14.29946 -18.243,25.9769 l -24.21684,2.54687 A 201.88171,201.88171 0 0 0 695.45555,411.45224 l 18.63315,-15.33258 c 7.85943,8.6911 21.45933,11.6933 31.25021,5.07389 10.09522,-6.82499 11.92906,-22.13007 1.95068,-34.12518 -11.04208,-13.27381 -23.35977,-25.52226 -36.80735,-36.53703 -12.17587,-9.97301 -27.5603,-8.05498 -34.25826,2.13913 -6.49019,9.87779 -3.26623,23.4905 5.47064,31.26799 L 666.4064,382.81758 A 201.88171,201.88171 0 0 0 559.03656,339.07211 l 2.32531,-23.91088 c 11.70298,0.58787 23.43934,-6.90523 25.68205,-18.50897 2.31228,-11.9645 -7.21184,-24.08318 -22.74941,-25.50923 -8.59701,-0.789 -17.2363,-1.1711 -25.89038,-1.14159 z"
             id="path901" />
          <circle
             r="24.783863"
             cy="451.77176"
             cx="449.71362"
             id="path923"
             style="opacity:1;fill:#e91920;fill-opacity:1;stroke:none;stroke-width:7.82494593;stroke-miterlimit:4;stroke-dasharray:none;stroke-opacity:1" />
          <circle
             style="opacity:1;fill:#e91920;fill-opacity:1;stroke:none;stroke-width:13.75216484;stroke-miterlimit:4;stroke-dasharray:none;stroke-opacity:1"
             id="circle925"
             cx="415.13138"
             cy="570.33942"
             r="43.557076" />
          <circle
             r="27.748055"
             cy="668.15771"
             cx="508.99744"
             id="circle927"
             style="opacity:1;fill:#e91920;fill-opacity:1;stroke:none;stroke-width:8.7608223;stroke-miterlimit:4;stroke-dasharray:none;stroke-opacity:1" />
          <circle
             style="opacity:1;fill:#e91920;fill-opacity:1;stroke:none;stroke-width:14.37608147;stroke-miterlimit:4;stroke-dasharray:none;stroke-opacity:1"
             id="circle929"
             cx="657.58722"
             cy="516.94788"
             r="45.533203" />
          <circle
             style="opacity:1;fill:#e91920;fill-opacity:1;stroke:none;stroke-width:3.45752168;stroke-miterlimit:4;stroke-dasharray:none;stroke-opacity:1"
             id="circle931"
             cx="567.29321"
             cy="400.39243"
             r="10.95097" />
          <circle
             style="opacity:1;fill:#e91920;fill-opacity:1;stroke:none;stroke-width:10.9445343;stroke-miterlimit:4;stroke-dasharray:none;stroke-opacity:1"
             id="circle933"
             cx="541.0589"
             cy="498.97113"
             r="34.664501" />
          <circle
             style="opacity:1;fill:#e91920;fill-opacity:1;stroke:none;stroke-width:5.95319271;stroke-miterlimit:4;stroke-dasharray:none;stroke-opacity:1"
             id="circle935"
             cx="594.4845"
             cy="638.44562"
             r="18.85548" />
        </g>
      </g>
      <g
         id="g849"
         inkscape:export-filename="./Covid-19.png"
         inkscape:export-xdpi="25.400002"
         inkscape:export-ydpi="25.400002"
         transform="matrix(0.4317459,0,0,0.4317459,224.04558,431.75969)">
        <g
           id="g847">
          <path
             id="path831"
             d="m 538.40413,270.00166 c -8.65426,0.0301 -17.32152,0.4721 -25.97034,1.33225 -15.66166,1.5576 -25.18378,13.79296 -22.71172,25.73743 2.3955,11.57385 14.29946,18.91927 25.9769,18.24084 l 2.54473,24.21899 a 201.88171,201.88171 0 0 0 -106.79132,45.01339 l -15.33253,-18.63315 c 8.6911,-7.85943 11.6933,-21.45923 5.07387,-31.25021 -6.82497,-10.0951 -22.13018,-11.92905 -34.12517,-1.95068 -13.27385,11.04222 -25.52227,23.35758 -36.53702,36.8052 -9.9731,12.17588 -8.05283,27.56246 2.14126,34.26046 9.8778,6.49014 23.48836,3.26631 31.26586,-5.47069 l 18.87907,15.28822 A 201.88171,201.88171 0 0 0 339.0723,520.9636 l -23.91101,-2.32524 c 0.588,-11.70308 -6.9051,-23.43946 -18.50898,-25.68205 -11.96436,-2.3124 -24.08318,7.20957 -25.50909,22.7471 -1.578,17.1941 -1.52974,34.56546 0.19045,51.86292 1.55768,15.6617 13.79305,25.18391 25.73756,22.71171 11.57381,-2.39536 18.9214,-14.29946 18.24293,-25.9769 l 24.21689,-2.54461 a 201.88171,201.88171 0 0 0 45.0134,106.7913 l -18.63316,15.33245 c -7.85946,-8.69099 -21.45707,-11.69319 -31.24805,-5.07389 -10.09514,6.82511 -11.93121,22.12805 -1.95287,34.12302 11.04225,13.27382 23.35977,25.52454 36.80747,36.53917 12.17592,9.97315 27.56023,8.05283 34.25819,-2.14126 6.49018,-9.87778 3.2685,-23.48836 -5.4684,-31.26574 l 15.28819,-18.87919 a 201.88171,201.88171 0 0 0 107.36761,43.74542 l -2.32531,23.91101 c -11.70301,-0.588 -23.43934,6.90524 -25.68204,18.50902 -2.31229,11.96432 7.21184,24.08314 22.7495,25.50917 17.19395,1.57802 34.56532,1.52964 51.86278,-0.19088 15.66166,-1.55767 25.18163,-13.79518 22.70956,-25.73969 -2.39549,-11.57385 -14.29946,-18.91925 -25.97689,-18.2408 l -2.54473,-24.21689 a 201.88171,201.88171 0 0 0 106.79128,-45.01338 l 15.33258,18.63315 c -8.69098,7.85956 -11.69322,21.45708 -5.07389,31.24806 6.82506,10.09514 22.13019,11.93133 34.12531,1.95287 13.27368,-11.04212 25.52222,-23.35977 36.53689,-36.80735 9.9731,-12.1759 8.05511,-27.56035 -2.13912,-34.25831 -9.87767,-6.49006 -23.49051,-3.26845 -31.26792,5.46852 l -18.8792,-15.28824 a 201.88171,201.88171 0 0 0 43.74548,-107.36756 l 23.911,2.32519 c -0.588,11.70299 6.90511,23.43946 18.50898,25.68203 11.96435,2.31233 24.08319,-7.21184 25.50908,-22.74937 1.57802,-17.19408 1.52976,-34.56545 -0.19045,-51.8629 -1.55767,-15.66167 -13.79305,-25.1839 -25.73754,-22.71172 -11.57386,2.3955 -18.92145,14.29946 -18.243,25.9769 l -24.21684,2.54687 A 201.88171,201.88171 0 0 0 695.45555,411.45224 l 18.63315,-15.33258 c 7.85943,8.6911 21.45933,11.6933 31.25021,5.07389 10.09522,-6.82499 11.92906,-22.13007 1.95068,-34.12518 -11.04208,-13.27381 -23.35977,-25.52226 -36.80735,-36.53703 -12.17587,-9.97301 -27.5603,-8.05498 -34.25826,2.13913 -6.49019,9.87779 -3.26623,23.4905 5.47064,31.26799 L 666.4064,382.81758 A 201.88171,201.88171 0 0 0 559.03656,339.07211 l 2.32531,-23.91088 c 11.70298,0.58787 23.43934,-6.90523 25.68205,-18.50897 2.31228,-11.9645 -7.21184,-24.08318 -22.74941,-25.50923 -8.59701,-0.789 -17.2363,-1.1711 -25.89038,-1.14159 z"
             style="opacity:1;vector-effect:none;fill:#a3ce33;fill-opacity:1;fill-rule:evenodd;stroke:none;stroke-width:53.33839035;stroke-linecap:round;stroke-linejoin:miter;stroke-miterlimit:4;stroke-dasharray:none;stroke-dashoffset:0;stroke-opacity:0;paint-order:normal"
             inkscape:connector-curvature="0" />
          <circle
             style="opacity:1;fill:#89ae2a;fill-opacity:1;stroke:none;stroke-width:7.82494593;stroke-miterlimit:4;stroke-dasharray:none;stroke-opacity:1"
             id="circle833"
             cx="449.71362"
             cy="451.77176"
             r="24.783863" />
          <circle
             r="43.557076"
             cy="570.33942"
             cx="415.13138"
             id="circle835"
             style="opacity:1;fill:#89ae2a;fill-opacity:1;stroke:none;stroke-width:13.75216484;stroke-miterlimit:4;stroke-dasharray:none;stroke-opacity:1" />
          <circle
             style="opacity:1;fill:#89ae2a;fill-opacity:1;stroke:none;stroke-width:8.7608223;stroke-miterlimit:4;stroke-dasharray:none;stroke-opacity:1"
             id="circle837"
             cx="508.99744"
             cy="668.15771"
             r="27.748055" />
          <circle
             r="45.533203"
             cy="516.94788"
             cx="657.58722"
             id="circle839"
             style="opacity:1;fill:#89ae2a;fill-opacity:1;stroke:none;stroke-width:14.37608147;stroke-miterlimit:4;stroke-dasharray:none;stroke-opacity:1" />
          <circle
             r="10.95097"
             cy="400.39243"
             cx="567.29321"
             id="circle841"
             style="opacity:1;fill:#89ae2a;fill-opacity:1;stroke:none;stroke-width:3.45752168;stroke-miterlimit:4;stroke-dasharray:none;stroke-opacity:1" />
          <circle
             r="34.664501"
             cy="498.97113"
             cx="541.0589"
             id="circle843"
             style="opacity:1;fill:#89ae2a;fill-opacity:1;stroke:none;stroke-width:10.9445343;stroke-miterlimit:4;stroke-dasharray:none;stroke-opacity:1" />
          <circle
             r="18.85548"
             cy="638.44562"
             cx="594.4845"
             id="circle845"
             style="opacity:1;fill:#89ae2a;fill-opacity:1;stroke:none;stroke-width:5.95319271;stroke-miterlimit:4;stroke-dasharray:none;stroke-opacity:1" />
        </g>
      </g>
      <g
         transform="matrix(0.4317459,0,0,0.4317459,504.34918,431.75969)"
         inkscape:export-ydpi="25.400002"
         inkscape:export-xdpi="25.400002"
         inkscape:export-filename="./Covid-19.png"
         id="g869">
        <g
           id="g867">
          <path
             inkscape:connector-curvature="0"
             style="opacity:1;vector-effect:none;fill:#396cb0;fill-opacity:1;fill-rule:evenodd;stroke:none;stroke-width:53.33839035;stroke-linecap:round;stroke-linejoin:miter;stroke-miterlimit:4;stroke-dasharray:none;stroke-dashoffset:0;stroke-opacity:0;paint-order:normal"
             d="m 538.40413,270.00166 c -8.65426,0.0301 -17.32152,0.4721 -25.97034,1.33225 -15.66166,1.5576 -25.18378,13.79296 -22.71172,25.73743 2.3955,11.57385 14.29946,18.91927 25.9769,18.24084 l 2.54473,24.21899 a 201.88171,201.88171 0 0 0 -106.79132,45.01339 l -15.33253,-18.63315 c 8.6911,-7.85943 11.6933,-21.45923 5.07387,-31.25021 -6.82497,-10.0951 -22.13018,-11.92905 -34.12517,-1.95068 -13.27385,11.04222 -25.52227,23.35758 -36.53702,36.8052 -9.9731,12.17588 -8.05283,27.56246 2.14126,34.26046 9.8778,6.49014 23.48836,3.26631 31.26586,-5.47069 l 18.87907,15.28822 A 201.88171,201.88171 0 0 0 339.0723,520.9636 l -23.91101,-2.32524 c 0.588,-11.70308 -6.9051,-23.43946 -18.50898,-25.68205 -11.96436,-2.3124 -24.08318,7.20957 -25.50909,22.7471 -1.578,17.1941 -1.52974,34.56546 0.19045,51.86292 1.55768,15.6617 13.79305,25.18391 25.73756,22.71171 11.57381,-2.39536 18.9214,-14.29946 18.24293,-25.9769 l 24.21689,-2.54461 a 201.88171,201.88171 0 0 0 45.0134,106.7913 l -18.63316,15.33245 c -7.85946,-8.69099 -21.45707,-11.69319 -31.24805,-5.07389 -10.09514,6.82511 -11.93121,22.12805 -1.95287,34.12302 11.04225,13.27382 23.35977,25.52454 36.80747,36.53917 12.17592,9.97315 27.56023,8.05283 34.25819,-2.14126 6.49018,-9.87778 3.2685,-23.48836 -5.4684,-31.26574 l 15.28819,-18.87919 a 201.88171,201.88171 0 0 0 107.36761,43.74542 l -2.32531,23.91101 c -11.70301,-0.588 -23.43934,6.90524 -25.68204,18.50902 -2.31229,11.96432 7.21184,24.08314 22.7495,25.50917 17.19395,1.57802 34.56532,1.52964 51.86278,-0.19088 15.66166,-1.55767 25.18163,-13.79518 22.70956,-25.73969 -2.39549,-11.57385 -14.29946,-18.91925 -25.97689,-18.2408 l -2.54473,-24.21689 a 201.88171,201.88171 0 0 0 106.79128,-45.01338 l 15.33258,18.63315 c -8.69098,7.85956 -11.69322,21.45708 -5.07389,31.24806 6.82506,10.09514 22.13019,11.93133 34.12531,1.95287 13.27368,-11.04212 25.52222,-23.35977 36.53689,-36.80735 9.9731,-12.1759 8.05511,-27.56035 -2.13912,-34.25831 -9.87767,-6.49006 -23.49051,-3.26845 -31.26792,5.46852 l -18.8792,-15.28824 a 201.88171,201.88171 0 0 0 43.74548,-107.36756 l 23.911,2.32519 c -0.588,11.70299 6.90511,23.43946 18.50898,25.68203 11.96435,2.31233 24.08319,-7.21184 25.50908,-22.74937 1.57802,-17.19408 1.52976,-34.56545 -0.19045,-51.8629 -1.55767,-15.66167 -13.79305,-25.1839 -25.73754,-22.71172 -11.57386,2.3955 -18.92145,14.29946 -18.243,25.9769 l -24.21684,2.54687 A 201.88171,201.88171 0 0 0 695.45555,411.45224 l 18.63315,-15.33258 c 7.85943,8.6911 21.45933,11.6933 31.25021,5.07389 10.09522,-6.82499 11.92906,-22.13007 1.95068,-34.12518 -11.04208,-13.27381 -23.35977,-25.52226 -36.80735,-36.53703 -12.17587,-9.97301 -27.5603,-8.05498 -34.25826,2.13913 -6.49019,9.87779 -3.26623,23.4905 5.47064,31.26799 L 666.4064,382.81758 A 201.88171,201.88171 0 0 0 559.03656,339.07211 l 2.32531,-23.91088 c 11.70298,0.58787 23.43934,-6.90523 25.68205,-18.50897 2.31228,-11.9645 -7.21184,-24.08318 -22.74941,-25.50923 -8.59701,-0.789 -17.2363,-1.1711 -25.89038,-1.14159 z"
             id="path851" />
          <circle
             r="24.783863"
             cy="451.77176"
             cx="449.71362"
             id="circle853"
             style="opacity:1;fill:#2f5991;fill-opacity:1;stroke:none;stroke-width:7.82494593;stroke-miterlimit:4;stroke-dasharray:none;stroke-opacity:1" />
          <circle
             style="opacity:1;fill:#2f5991;fill-opacity:1;stroke:none;stroke-width:13.75216484;stroke-miterlimit:4;stroke-dasharray:none;stroke-opacity:1"
             id="circle855"
             cx="415.13138"
             cy="570.33942"
             r="43.557076" />
          <circle
             r="27.748055"
             cy="668.15771"
             cx="508.99744"
             id="circle857"
             style="opacity:1;fill:#2f5991;fill-opacity:1;stroke:none;stroke-width:8.7608223;stroke-miterlimit:4;stroke-dasharray:none;stroke-opacity:1" />
          <circle
             style="opacity:1;fill:#2f5991;fill-opacity:1;stroke:none;stroke-width:14.37608147;stroke-miterlimit:4;stroke-dasharray:none;stroke-opacity:1"
             id="circle859"
             cx="657.58722"
             cy="516.94788"
             r="45.533203" />
          <circle
             style="opacity:1;fill:#2f5991;fill-opacity:1;stroke:none;stroke-width:3.45752168;stroke-miterlimit:4;stroke-dasharray:none;stroke-opacity:1"
             id="circle861"
             cx="567.29321"
             cy="400.39243"
             r="10.95097" />
          <circle
             style="opacity:1;fill:#2f5991;fill-opacity:1;stroke:none;stroke-width:10.9445343;stroke-miterlimit:4;stroke-dasharray:none;stroke-opacity:1"
             id="circle863"
             cx="541.0589"
             cy="498.97113"
             r="34.664501" />
          <circle
             style="opacity:1;fill:#2f5991;fill-opacity:1;stroke:none;stroke-width:5.95319271;stroke-miterlimit:4;stroke-dasharray:none;stroke-opacity:1"
             id="circle865"
             cx="594.4845"
             cy="638.44562"
             r="18.85548" />
        </g>
      </g>
    </g>
  </g>
</svg>
