<svg width="314" height="67" viewBox="0 0 314 67" fill="none" xmlns="http://www.w3.org/2000/svg">
<g filter="url(#filter0_d_307_97)">
<path d="M28.6407 53.32C28.6407 55.464 27.3007 56.536 24.6207 56.536C21.9853 56.536 20.6677 55.464 20.6677 53.32V9.569H8.94268C7.33468 9.569 6.48601 8.43 6.39668 6.152C6.39668 3.91866 7.24534 2.802 8.94268 2.802H40.3657C42.063 2.802 42.867 3.91866 42.7777 6.152C42.7777 8.43 41.9737 9.569 40.3657 9.569H28.6407V53.32ZM58.0123 53.186C58.0123 55.33 56.6723 56.402 53.9923 56.402C51.357 56.402 50.0393 55.33 50.0393 53.186V5.683C50.0393 3.539 51.357 2.467 53.9923 2.467C56.6723 2.467 58.0123 3.539 58.0123 5.683V53.186ZM110.822 2.467C112.251 2.467 113.815 2.802 115.512 3.472C117.075 4.09733 117.857 5.281 117.857 7.023V53.186C117.857 55.33 116.539 56.402 113.904 56.402C111.269 56.402 109.951 55.33 109.951 53.186V18.748L108.008 18.547L105.328 27.257L97.2879 54.057C96.7966 55.6203 95.5906 56.3797 93.6699 56.335C92.8213 56.2903 92.0843 56.067 91.4589 55.665C90.8336 55.263 90.4093 54.6823 90.1859 53.923L85.3619 38.312C84.3793 35.23 83.3966 32.1033 82.4139 28.932C81.4313 25.716 80.3593 22.165 79.1979 18.279L77.2549 18.547V53.186C77.2549 55.33 75.9373 56.402 73.3019 56.402C70.6666 56.402 69.3489 55.33 69.3489 53.186V7.023C69.3489 5.32566 70.1306 4.142 71.6939 3.472C73.3466 2.802 74.9323 2.48933 76.4509 2.534C77.1209 2.534 77.8133 2.62333 78.5279 2.802C79.2426 2.98067 79.9126 3.24866 80.5379 3.606C81.1633 3.91866 81.7216 4.343 82.2129 4.879C82.7043 5.37033 83.0839 5.951 83.3519 6.621L93.8709 42.466C94.6303 39.8307 95.4343 36.972 96.2829 33.89C97.1316 30.808 98.0026 27.6813 98.8959 24.51C99.7893 21.3387 100.66 18.212 101.509 15.13C102.402 12.0033 103.229 9.1 103.988 6.42C104.256 5.79467 104.636 5.23633 105.127 4.745C105.618 4.25366 106.177 3.85166 106.802 3.539C107.427 3.18167 108.075 2.91367 108.745 2.735C109.46 2.55633 110.152 2.467 110.822 2.467ZM132.622 56.067C130.969 56.067 129.853 55.6427 129.272 54.794C128.691 53.9453 128.401 53.0073 128.401 51.98V6.822C128.401 5.79466 128.691 4.879 129.272 4.075C129.853 3.22633 130.969 2.802 132.622 2.802H155.938C157.591 2.802 158.462 3.91866 158.551 6.152C158.64 8.43 157.769 9.569 155.938 9.569H136.307V49.3H157.144C158.797 49.3 159.645 50.3943 159.69 52.583C159.779 54.9057 158.931 56.067 157.144 56.067H132.622ZM153.459 28.329C153.459 29.8923 152.901 31.21 151.784 32.282C150.712 33.354 149.394 33.89 147.831 33.89C146.312 33.89 145.017 33.354 143.945 32.282C142.873 31.21 142.337 29.8923 142.337 28.329C142.337 26.7657 142.873 25.448 143.945 24.376C145.017 23.304 146.312 22.768 147.831 22.768C149.394 22.768 150.712 23.304 151.784 24.376C152.901 25.448 153.459 26.7657 153.459 28.329ZM172.164 56.067C170.511 56.067 169.394 55.6427 168.814 54.794C168.233 53.9453 167.943 53.0073 167.943 51.98V5.683C167.943 3.539 169.238 2.467 171.829 2.467C174.509 2.467 175.849 3.539 175.849 5.683V49.3H198.227C199.835 49.3 200.639 50.3943 200.639 52.583C200.728 54.9057 199.924 56.067 198.227 56.067H172.164ZM216.054 53.186C216.054 55.33 214.714 56.402 212.034 56.402C209.398 56.402 208.081 55.33 208.081 53.186V5.683C208.081 3.539 209.398 2.467 212.034 2.467C214.714 2.467 216.054 3.539 216.054 5.683V53.186ZM257.473 5.683C257.473 3.539 258.791 2.467 261.426 2.467C264.062 2.467 265.379 3.539 265.379 5.683V51.913C265.379 53.4763 264.553 54.6153 262.9 55.33H262.967C262.253 55.6427 261.493 55.8883 260.689 56.067C259.885 56.2457 259.104 56.335 258.344 56.335C257.764 56.335 257.161 56.268 256.535 56.134C255.91 56.0447 255.307 55.8883 254.726 55.665C254.19 55.397 253.677 55.062 253.185 54.66C252.739 54.2133 252.381 53.6773 252.113 53.052L237.574 16.805L235.765 17.006V53.186C235.765 55.33 234.425 56.402 231.745 56.402C229.11 56.402 227.792 55.33 227.792 53.186V7.023C227.792 5.19167 228.596 3.96333 230.204 3.338C231.678 2.75733 233.242 2.467 234.894 2.467C236.056 2.467 237.217 2.71266 238.378 3.204C239.584 3.65066 240.5 4.52166 241.125 5.817L255.597 42.131L257.473 41.93V5.683ZM280.653 56.067C279 56.067 277.883 55.6427 277.303 54.794C276.722 53.9453 276.432 53.0073 276.432 51.98V6.822C276.432 5.79466 276.722 4.879 277.303 4.075C277.883 3.22633 279 2.802 280.653 2.802H303.969C305.621 2.802 306.492 3.91866 306.582 6.152C306.671 8.43 305.8 9.569 303.969 9.569H284.338V49.3H305.175C306.827 49.3 307.676 50.3943 307.721 52.583C307.81 54.9057 306.961 56.067 305.175 56.067H280.653ZM301.49 28.329C301.49 29.8923 300.931 31.21 299.815 32.282C298.743 33.354 297.425 33.89 295.862 33.89C294.343 33.89 293.048 33.354 291.976 32.282C290.904 31.21 290.368 29.8923 290.368 28.329C290.368 26.7657 290.904 25.448 291.976 24.376C293.048 23.304 294.343 22.768 295.862 22.768C297.425 22.768 298.743 23.304 299.815 24.376C300.931 25.448 301.49 26.7657 301.49 28.329Z" fill="white"/>
</g>
<defs>
<filter id="filter0_d_307_97" x="0.396667" y="0.467041" width="313.458" height="66.069" filterUnits="userSpaceOnUse" color-interpolation-filters="sRGB">
<feFlood flood-opacity="0" result="BackgroundImageFix"/>
<feColorMatrix in="SourceAlpha" type="matrix" values="0 0 0 0 0 0 0 0 0 0 0 0 0 0 0 0 0 0 127 0" result="hardAlpha"/>
<feOffset dy="4"/>
<feGaussianBlur stdDeviation="3"/>
<feComposite in2="hardAlpha" operator="out"/>
<feColorMatrix type="matrix" values="0 0 0 0 0.0958334 0 0 0 0 0.668472 0 0 0 0 1 0 0 0 0.98 0"/>
<feBlend mode="normal" in2="BackgroundImageFix" result="effect1_dropShadow_307_97"/>
<feBlend mode="normal" in="SourceGraphic" in2="effect1_dropShadow_307_97" result="shape"/>
</filter>
</defs>
</svg>
